<svg width="20" height="20" viewBox="0 0 20 20" fill="none" aria-hidden="true" focusable="false" role="img" xmlns="http://www.w3.org/2000/svg">
<path d="M7.61747 3.9295L13.3453 9.65731C13.3997 9.71171 13.4378 9.7661 13.4595 9.8205C13.4813 9.87489 13.4921 9.93473 13.4921 10C13.4921 10.0653 13.4813 10.1251 13.4595 10.1795C13.4378 10.2339 13.3997 10.2883 13.3453 10.3427L7.61747 16.0705C7.4978 16.1902 7.3455 16.25 7.16055 16.25C6.97561 16.25 6.8233 16.1902 6.70364 16.0705C6.57309 15.9399 6.50781 15.7849 6.50781 15.6054C6.50781 15.4259 6.57309 15.2709 6.70364 15.1403L11.844 10L6.70364 4.85966C6.57309 4.72911 6.51053 4.57409 6.51597 4.39458C6.52141 4.21508 6.58397 4.06549 6.70364 3.94582C6.83418 3.81527 6.98921 3.75 7.16871 3.75C7.34822 3.75 7.4978 3.80984 7.61747 3.9295Z" fill="currentColor"/>
</svg>
