<svg width="20" height="20" viewBox="0 0 20 20" fill="none" aria-hidden="true" focusable="false" role="img" xmlns="http://www.w3.org/2000/svg">
<path d="M12.3825 16.0705L6.65468 10.3427C6.60028 10.2883 6.56221 10.2339 6.54045 10.1795C6.51869 10.1251 6.50781 10.0653 6.50781 10C6.50781 9.93473 6.51869 9.87489 6.54045 9.8205C6.56221 9.7661 6.60028 9.71171 6.65468 9.65731L12.3825 3.9295C12.5022 3.80983 12.6545 3.75 12.8394 3.75C13.0243 3.75 13.1767 3.80983 13.2963 3.9295C13.4269 4.06005 13.4921 4.21508 13.4921 4.39458C13.4921 4.57409 13.4269 4.72911 13.2963 4.85966L8.15598 10L13.2963 15.1403C13.4269 15.2709 13.4894 15.4259 13.484 15.6054C13.4785 15.7849 13.416 15.9345 13.2963 16.0542C13.1658 16.1847 13.0107 16.25 12.8312 16.25C12.6517 16.25 12.5022 16.1902 12.3825 16.0705V16.0705Z" fill="currentColor"/>
</svg>
