<svg width="20" height="20" viewBox="0 0 20 20" fill="none" aria-hidden="true" focusable="false" role="img" xmlns="http://www.w3.org/2000/svg">
<path d="M16.0705 7.61751L10.3427 13.3453C10.2883 13.3997 10.2339 13.4378 10.1795 13.4596C10.1251 13.4813 10.0653 13.4922 10 13.4922C9.93473 13.4922 9.87489 13.4813 9.8205 13.4596C9.7661 13.4378 9.71171 13.3997 9.65731 13.3453L3.9295 7.61751C3.80983 7.49785 3.75 7.34554 3.75 7.1606C3.75 6.97565 3.80983 6.82335 3.9295 6.70368C4.06005 6.57313 4.21508 6.50785 4.39458 6.50785C4.57409 6.50785 4.72911 6.57313 4.85966 6.70368L10 11.844L15.1403 6.70368C15.2709 6.57313 15.4259 6.51057 15.6054 6.51601C15.7849 6.52145 15.9345 6.58401 16.0542 6.70368C16.1847 6.83423 16.25 6.98925 16.25 7.16875C16.25 7.34826 16.1902 7.49785 16.0705 7.61751V7.61751Z" fill="currentColor"/>
</svg>
