<svg width="20" height="20" viewBox="0 0 20 20" fill="none" aria-hidden="true" focusable="false" role="img" xmlns="http://www.w3.org/2000/svg">
<path d="M8.44758 13.75C8.54499 13.75 8.63427 13.7338 8.71544 13.7013C8.79661 13.6688 8.87778 13.612 8.95895 13.5308L14.9736 7.51623C15.1034 7.38636 15.1724 7.21591 15.1805 7.00487C15.1887 6.79383 15.1197 6.61526 14.9736 6.46916C14.8275 6.32305 14.6529 6.25 14.45 6.25C14.2471 6.25 14.0726 6.32305 13.9265 6.46916L8.44758 11.9481L6.06122 9.56169C5.93135 9.43182 5.76495 9.36283 5.56203 9.35471C5.35911 9.34659 5.1846 9.41558 5.03849 9.56169C4.89239 9.70779 4.81934 9.88231 4.81934 10.0852C4.81934 10.2881 4.89239 10.4627 5.03849 10.6088L7.93622 13.5308C8.01739 13.612 8.09856 13.6688 8.17973 13.7013C8.26089 13.7338 8.35018 13.75 8.44758 13.75Z" fill="#141415"/>
</svg>
