<svg xmlns="http://www.w3.org/2000/svg" height="20" width="20" viewBox="0 0 20 20" aria-hidden="true" focusable="false" role="img"><path d="M9.98868 11.0728L5.2731 15.7873C5.13203 15.9291 4.96303 16 4.76613 16C4.56997 16 4.39344 15.9212 4.23651 15.7635C4.07884 15.6066 4 15.43 4 15.2339C4 15.037 4.07884 14.8601 4.23651 14.7031L8.9272 10.0113L4.21275 5.29574C4.07092 5.15466 4 4.98189 4 4.77744C4 4.57299 4.07884 4.3923 4.23651 4.23538C4.39344 4.07846 4.56997 4 4.76613 4C4.96303 4 5.13995 4.07846 5.29687 4.23538L9.98868 8.94983L14.7043 4.23538C14.8453 4.09355 15.0181 4.01886 15.2226 4.01132C15.427 4.00377 15.6077 4.07846 15.7646 4.23538C15.9215 4.3923 16 4.56922 16 4.76613C16 4.96228 15.9215 5.13882 15.7646 5.29574L11.0502 10.0113L15.7646 14.7269C15.9065 14.868 15.9811 15.037 15.9887 15.2339C15.9962 15.43 15.9215 15.6066 15.7646 15.7635C15.6077 15.9212 15.4308 16 15.2339 16C15.0377 16 14.8612 15.9212 14.7043 15.7635L9.98868 11.0728Z" fill="currentColor"/></svg>