<svg width="20" height="20" viewBox="0 0 20 20" fill="none" aria-hidden="true" focusable="false" role="img" xmlns="http://www.w3.org/2000/svg">
<path d="M13.3325 10C13.3325 8.16417 11.835 6.66668 9.99917 6.66668C8.16334 6.66668 6.66584 8.16417 6.66584 10C6.66584 11.8358 8.16334 13.3333 9.99917 13.3333C11.835 13.3333 13.3325 11.8358 13.3325 10ZM15.1292 10C15.1292 12.8383 12.8375 15.13 9.99917 15.13C7.16084 15.13 4.86918 12.8383 4.86918 10C4.86918 7.16167 7.16084 4.87001 9.99917 4.87001C12.8375 4.87001 15.1292 7.16167 15.1292 10ZM16.5358 4.66168C16.5358 5.32585 16.0016 5.85918 15.3383 5.85918C14.675 5.85918 14.1408 5.32501 14.1408 4.66168C14.1408 3.99835 14.675 3.46418 15.3383 3.46418C16.0016 3.46418 16.5358 3.99835 16.5358 4.66168ZM9.99917 1.79669C8.54084 1.79669 5.41585 1.67919 4.10085 2.20002C3.64502 2.38252 3.30668 2.60335 2.95502 2.95502C2.60335 3.30668 2.38169 3.64502 2.20002 4.10085C1.67919 5.41585 1.79669 8.54084 1.79669 9.99917C1.79669 11.4575 1.67919 14.5825 2.20002 15.8975C2.38252 16.3533 2.60335 16.6916 2.95502 17.0433C3.30668 17.395 3.64502 17.6166 4.10085 17.7983C5.41585 18.3191 8.54084 18.2016 9.99917 18.2016C11.4575 18.2016 14.5825 18.3191 15.8975 17.7983C16.3533 17.6158 16.6916 17.395 17.0433 17.0433C17.395 16.6916 17.6166 16.3533 17.7983 15.8975C18.3191 14.5825 18.2016 11.4575 18.2016 9.99917C18.2016 8.54084 18.3191 5.41585 17.7983 4.10085C17.6158 3.64502 17.395 3.30668 17.0433 2.95502C16.6916 2.60335 16.3533 2.38169 15.8975 2.20002C14.5825 1.67919 11.4575 1.79669 9.99917 1.79669V1.79669ZM19.9991 10C19.9991 11.38 20.0125 12.7475 19.9341 14.1275C19.8558 15.7292 19.4916 17.1483 18.32 18.32C17.1483 19.4916 15.7292 19.8566 14.1275 19.9341C12.7475 20.0125 11.38 19.9991 10 19.9991C8.62 19.9991 7.25251 20.0125 5.87251 19.9341C4.27085 19.8558 2.85169 19.4916 1.68002 18.32C0.508359 17.1483 0.14336 15.7292 0.0658598 14.1275C-0.0124733 12.7475 0.000859996 11.38 0.000859996 10C0.000859996 8.62 -0.0124733 7.25251 0.0658598 5.87251C0.144193 4.27085 0.508359 2.85169 1.68002 1.68002C2.85169 0.508358 4.27085 0.14336 5.87251 0.0658599C7.25251 -0.0124733 8.62 0.000859986 10 0.000859986C11.38 0.000859986 12.7475 -0.0124733 14.1275 0.0658599C15.7292 0.144193 17.1483 0.508358 18.32 1.68002C19.4916 2.85169 19.8566 4.27085 19.9341 5.87251C20.0125 7.25251 19.9991 8.62 19.9991 10Z" fill="currentColor"/>
</svg>
