<svg width="100" height="28" viewBox="0 0 100 28" fill="none" aria-hidden="true" focusable="false" role="img" xmlns="http://www.w3.org/2000/svg">
<path d="M25.5196 13.7216L19.1361 18.8031V13.7216H17.1431V23.9131H19.1361V21.0236L21.4336 19.2017C21.7951 19.6524 22.1233 20.0699 22.4373 20.478C24.1925 22.7222 25.2532 24.0792 26.9133 24.0792C27.2177 24.0792 27.5269 24.0365 27.8932 23.9416L28.0121 23.9131L27.9598 22.1054L27.779 22.1433C27.6506 22.1718 27.5269 22.2003 27.3937 22.2003C26.3568 22.2003 24.944 20.8528 22.951 17.968L28.2785 13.7263H25.5196V13.7216V13.7216Z" fill="currentColor"/>
<path d="M34.5289 16.0275C33.6727 16.0275 32.4882 16.2552 31.5464 17.2848L31.4846 16.1888H29.5771V23.9273H31.5702V19.7852C32.0411 18.4093 33.178 17.9206 34.0104 17.9206C34.7096 17.9206 35.4659 18.3476 35.4659 19.2823V23.9273H37.4875V19.0498C37.4875 17.2706 36.2698 16.0275 34.5289 16.0275Z" fill="currentColor"/>
<path d="M43.0434 15.6716C40.5604 15.6716 38.9526 17.3085 38.9526 19.8375C38.9526 22.2857 40.6127 23.9321 43.0862 23.9321C45.5787 23.9321 47.1912 22.2952 47.1912 19.7663C47.1912 17.3133 45.5264 15.6716 43.0434 15.6716ZM43.0719 22.0058C41.7971 22.0058 40.9742 21.1138 40.9742 19.7331C40.9742 18.4235 41.7686 17.6122 43.0434 17.6122C44.3372 17.6122 45.1696 18.5042 45.1696 19.8802C45.1696 21.1897 44.3658 22.0058 43.0719 22.0058Z" fill="currentColor"/>
<path d="M57.927 21.3036L57.7938 21.593C57.0042 19.5243 56.3668 17.8305 55.796 16.2885L55.7579 16.1888H53.7554L53.7173 16.2885C53.0704 18.0345 52.4045 19.8327 51.729 21.6025L51.5911 21.3131L51.1725 20.2171C50.6826 18.9313 50.1736 17.6028 49.6836 16.2885L49.6456 16.1888H47.5955L50.7444 23.9274H52.6946L54.7543 18.8032C55.0111 19.4342 55.2633 20.07 55.5201 20.701C55.9339 21.7306 56.3621 22.7934 56.7902 23.8325L56.8282 23.9274H58.7784L61.9274 16.1888H59.882L57.927 21.3036Z" fill="currentColor"/>
<path d="M67.3549 16.0133C66.4273 16.0133 65.5568 16.3312 64.9147 16.9006V13.7406H62.9216V23.9322H64.7958L64.81 23.7946C64.8291 23.6143 64.8481 23.4292 64.8719 23.2489C65.4712 23.8373 66.2894 24.1552 67.2074 24.1552C69.1006 24.1552 71.0128 22.7507 71.0128 20.0605C71.0128 18.8032 70.6322 17.7546 69.914 17.0287C69.2623 16.3739 68.3538 16.0133 67.3549 16.0133ZM66.8935 22.3C65.6567 22.3 64.9147 21.4602 64.9147 20.0605C64.9147 18.694 65.6187 17.9112 66.8459 17.9112C68.1397 17.9112 68.9721 18.8032 68.9721 20.1791C68.9769 21.4886 68.1778 22.3 66.8935 22.3Z" fill="currentColor"/>
<path d="M72.354 16.1746H74.3471V23.9131H72.354V16.1746Z" fill="currentColor"/>
<path d="M73.3102 12.7109C72.5301 12.7109 72.0068 13.2376 72.0068 14.0252C72.0068 14.7701 72.5586 15.3063 73.3244 15.3063C74.0808 15.3063 74.6087 14.7654 74.6087 13.992C74.6135 13.2518 74.0665 12.7109 73.3102 12.7109Z" fill="currentColor"/>
<path d="M79.3417 22.0152C78.4665 22.0152 78.2287 21.7116 78.2287 20.6061V13.7216H76.2356V20.6678C76.2356 22.912 77.1203 24.0033 78.9374 24.0033C79.218 24.0033 79.6747 23.97 79.922 23.9416L80.06 23.9273V21.9583L79.8792 21.9868C79.8079 22.001 79.4654 22.0152 79.3417 22.0152Z" fill="currentColor"/>
<path d="M82.3336 12.7109C81.5535 12.7109 81.0303 13.2376 81.0303 14.0252C81.0303 14.7701 81.582 15.3063 82.3479 15.3063C83.1042 15.3063 83.6322 14.7654 83.6322 13.992C83.6369 13.2518 83.0899 12.7109 82.3336 12.7109Z" fill="currentColor"/>
<path d="M81.3774 16.1746H83.3705V23.9131H81.3774V16.1746Z" fill="currentColor"/>
<path d="M88.8837 22.0152C88.0085 22.0152 87.7231 21.7116 87.7231 20.6061V18.0345H89.1739V16.1746H87.7706L87.7231 13.7216H85.8252V16.1746H84.7834V18.0345H85.8252V20.6678C85.8252 22.912 86.7099 24.0033 88.527 24.0033C88.8076 24.0033 89.2643 23.97 89.5116 23.9416L89.6495 23.9273V21.9583L89.4688 21.9868C89.3974 22.001 89.0074 22.0152 88.8837 22.0152Z" fill="currentColor"/>
<path d="M97.9547 16.1745L97.9119 16.2552C97.5123 17.0144 97.1128 17.7735 96.7132 18.5326C96.1614 19.5812 95.5954 20.6583 95.0294 21.7211C94.1827 19.9181 93.3407 18.0772 92.5226 16.2979L92.4655 16.1745H90.363L93.9972 23.6094L92.1706 27.0493H94.2493L100 16.1698H97.9547V16.1745Z" fill="currentColor"/>
<path d="M14.2701 7.117C14.2701 3.19316 11.0688 0 7.13504 0C3.20126 0 0 3.19316 0 7.117C0 10.7562 2.74937 13.7643 6.28835 14.1818V23.0638C6.28835 23.5288 6.66889 23.9084 7.13504 23.9084C7.6012 23.9084 7.98173 23.5288 7.98173 23.0638V14.1818C11.5207 13.7643 14.2701 10.7562 14.2701 7.117ZM7.98173 12.469V10.6186L10.2697 8.33638C10.6027 8.00426 10.6027 7.47285 10.2697 7.14073C9.93674 6.8086 9.40399 6.8086 9.07102 7.14073L7.98173 8.22726V7.46811L9.65609 5.79799C9.98906 5.46586 9.98906 4.93446 9.65609 4.60233C9.32312 4.27495 8.79037 4.2702 8.4574 4.60233L6.5357 6.51918C6.53094 6.52392 6.53094 6.52392 6.52619 6.52867C6.48813 6.56662 6.45484 6.60458 6.4263 6.64728C6.41203 6.67101 6.40251 6.69473 6.38824 6.71845C6.38348 6.72794 6.37873 6.73269 6.37397 6.74218L5.18955 5.56075C4.85659 5.22863 4.32384 5.22863 3.99087 5.56075C3.6579 5.89288 3.6579 6.42428 3.99087 6.75641L6.27884 9.0386V12.469C3.67693 12.061 1.68387 9.82147 1.68387 7.117C1.69338 4.11837 4.12881 1.6891 7.13504 1.6891C10.1413 1.6891 12.5767 4.11837 12.5767 7.117C12.5767 9.82621 10.5836 12.0657 7.98173 12.469Z" fill="currentColor"/>
</svg>
