<svg width="20" height="20" viewBox="0 0 20 20" fill="none" aria-hidden="true" focusable="false" role="img" xmlns="http://www.w3.org/2000/svg">
<path d="M4.57718 6.67403V19.4992H0.306547V6.67403H4.57718ZM4.84886 2.71317C4.86211 3.94235 3.93029 4.92635 2.44186 4.92635H2.41619C0.979942 4.92635 0.0605469 3.94235 0.0605469 2.71317C0.0605469 1.4575 1.01804 0.5 2.46754 0.5C3.93029 0.5 4.8356 1.4575 4.84886 2.71317ZM19.9394 12.1482V19.4992H15.6811V12.6402C15.6811 10.919 15.0599 9.74116 13.5202 9.74116C12.3423 9.74116 11.6433 10.5305 11.3327 11.2942C11.2291 11.5791 11.1902 11.9543 11.1902 12.3428V19.5H6.93199C6.98417 7.87835 6.93199 6.67486 6.93199 6.67486H11.1902V8.53849H11.1645C11.7211 7.65886 12.7308 6.3775 15.0343 6.3775C17.843 6.3775 19.9394 8.21546 19.9394 12.1498V12.1482Z" fill="currentColor"/>
</svg>
