<svg width="20" height="15" viewBox="0 0 20 15" fill="none" aria-hidden="true" focusable="false" role="img" xmlns="http://www.w3.org/2000/svg">
<path d="M9.01532 3.66477C7.78993 3.69318 6.94384 3.94886 6.47702 4.43182C6.01021 4.91477 5.7768 5.52557 5.7768 6.26421V6.47727H8.7965V15H0V9.24716C0 6.06534 0.773158 3.75 2.31947 2.30113C3.89497 0.823862 6.12691 0.0568175 9.01532 0V3.66477ZM20 3.66477C18.7746 3.69318 17.9285 3.94886 17.4617 4.43182C16.9949 4.91477 16.7615 5.52557 16.7615 6.26421V6.47727H19.7812V15H10.9847V9.24716C10.9847 6.06534 11.7578 3.75 13.3042 2.30113C14.8796 0.823862 17.1116 0.0568175 20 0V3.66477Z" fill="currentColor"/>
</svg>
