<svg width="20" height="20" viewBox="0 0 20 20" fill="none" aria-hidden="true" focusable="false" role="img" xmlns="http://www.w3.org/2000/svg">
<path d="M8.77091 11.8958L6.72925 9.85413C6.60425 9.72913 6.45147 9.66663 6.27092 9.66663C6.09036 9.66663 5.93758 9.72913 5.81258 9.85413C5.67369 9.99302 5.60425 10.1562 5.60425 10.3437C5.60425 10.5312 5.66675 10.6875 5.79175 10.8125L8.33342 13.3541C8.44453 13.4652 8.59036 13.5208 8.77091 13.5208C8.95147 13.5208 9.0973 13.4652 9.20842 13.3541L14.2084 8.35413C14.3334 8.22913 14.3959 8.07635 14.3959 7.89579C14.3959 7.71524 14.3265 7.55551 14.1876 7.41663C14.0626 7.29163 13.9063 7.22913 13.7188 7.22913C13.5313 7.22913 13.3681 7.29857 13.2292 7.43746L8.77091 11.8958ZM10.0001 18.3333C8.81953 18.3333 7.7223 18.1215 6.70842 17.6979C5.69453 17.2743 4.81258 16.6875 4.06258 15.9375C3.31258 15.1875 2.72578 14.3055 2.30216 13.2916C1.87855 12.2777 1.66675 11.1805 1.66675 9.99996C1.66675 8.83329 1.87855 7.74302 2.30216 6.72913C2.72578 5.71524 3.31258 4.83329 4.06258 4.08329C4.81258 3.33329 5.69453 2.74301 6.70842 2.31246C7.7223 1.8819 8.81953 1.66663 10.0001 1.66663C11.1667 1.66663 12.257 1.8819 13.2709 2.31246C14.2848 2.74301 15.1667 3.33329 15.9167 4.08329C16.6667 4.83329 17.257 5.71524 17.6876 6.72913C18.1181 7.74302 18.3334 8.83329 18.3334 9.99996C18.3334 11.1805 18.1181 12.2777 17.6876 13.2916C17.257 14.3055 16.6667 15.1875 15.9167 15.9375C15.1667 16.6875 14.2848 17.2743 13.2709 17.6979C12.257 18.1215 11.1667 18.3333 10.0001 18.3333Z" fill="currentColor"/>
</svg>
