<svg width="20" height="20" viewBox="0 0 20 20" fill="none" aria-hidden="true" focusable="false" role="img" xmlns="http://www.w3.org/2000/svg">
<path d="M20 3.80775C19.4412 4.61997 18.7435 5.34365 17.9443 5.92682C17.9573 6.1047 17.9573 6.28258 17.9573 6.45964C17.9573 11.8787 13.8328 18.1222 6.29467 18.1222C3.97255 18.1222 1.81449 17.4497 0 16.2818C0.32976 16.3199 0.647336 16.3329 0.990091 16.3329C2.90611 16.3329 4.67024 15.6856 6.07943 14.5818C4.27713 14.5436 2.76722 13.3635 2.24659 11.739C2.50081 11.7772 2.75422 11.8024 3.02063 11.8024C3.38856 11.8024 3.7565 11.7512 4.09925 11.6627C2.22141 11.2818 0.812216 9.63215 0.812216 7.63979V7.58862C1.35802 7.8932 1.99237 8.08326 2.66488 8.10925C1.56108 7.37338 0.837394 6.11688 0.837394 4.69551C0.837394 3.93365 1.04045 3.23595 1.3962 2.62679C3.41374 5.1138 6.44737 6.73904 9.84812 6.9161C9.78476 6.61152 9.74659 6.29395 9.74659 5.97718C9.74659 3.71841 11.5741 1.87793 13.8458 1.87793C15.026 1.87793 16.0924 2.37257 16.8405 3.1726C17.7672 2.99473 18.655 2.65197 19.442 2.18251C19.1374 3.13443 18.4901 3.93365 17.6397 4.44128C18.4649 4.35275 19.2641 4.12452 20 3.80775Z" fill="currentColor"/>
</svg>
